<svg xmlns="http://www.w3.org/2000/svg" viewBox="0 0 40 40"><defs><style>.cls-1{fill:#131c2f;}.cls-2{fill:#f40058;}</style></defs><title>tick_1</title><g id="Layer_2" data-name="Layer 2"><g id="Layer_1-2" data-name="Layer 1"><path class="cls-1" d="M20,0A20,20,0,1,0,40,20,20,20,0,0,0,20,0Zm0,37.38A17.38,17.38,0,1,1,37.38,20,17.4,17.4,0,0,1,20,37.38Z"/><path class="cls-2" d="M27.24,13.45,16.93,23.77,12.76,19.6a1.31,1.31,0,0,0-1.85,1.86l5.1,5.1a1.31,1.31,0,0,0,1.86,0h0L29.1,15.31a1.31,1.31,0,1,0-1.85-1.85Z"/></g></g></svg>