<?xml version="1.0" standalone="no"?>
<!DOCTYPE svg PUBLIC "-//W3C//DTD SVG 20010904//EN"
 "http://www.w3.org/TR/2001/REC-SVG-20010904/DTD/svg10.dtd">
<svg version="1.0" xmlns="http://www.w3.org/2000/svg"
 width="103.000000pt" height="103.000000pt" viewBox="0 0 103.000000 103.000000"
 preserveAspectRatio="xMidYMid meet">
<metadata>
Created by potrace 1.11, written by Peter Selinger 2001-2013
</metadata>
<g transform="translate(0.000000,103.000000) scale(0.100000,-0.100000)"
fill="#000000" stroke="none">
<path d="M74 1020 c-32 -13 -64 -59 -64 -92 0 -97 116 -152 178 -85 32 35 41
67 28 111 -17 58 -84 90 -142 66z"/>
<path d="M848 1013 c-85 -54 -59 -180 40 -198 98 -17 161 115 88 184 -32 30
-93 37 -128 14z"/>
<path d="M70 752 c-60 -29 -60 -35 -58 -379 l3 -311 24 -26 c44 -47 131 -43
164 8 8 11 44 100 82 196 37 96 71 178 74 182 3 4 110 -84 237 -195 127 -111
241 -208 253 -214 37 -23 88 -16 123 16 l33 29 3 308 c2 214 -1 316 -9 335
-33 80 -156 84 -192 6 -9 -18 -43 -104 -77 -192 -65 -166 -76 -187 -88 -170
-4 6 -38 37 -77 70 -38 33 -72 63 -75 66 -3 3 -27 25 -55 49 -66 56 -157 136
-208 183 -23 20 -58 42 -77 47 -44 12 -39 13 -80 -8z"/>
</g>
</svg>
