<?xml version="1.0" encoding="UTF-8"?><!DOCTYPE svg PUBLIC "-//W3C//DTD SVG 1.1//EN" "http://www.w3.org/Graphics/SVG/1.1/DTD/svg11.dtd"><svg xmlns="http://www.w3.org/2000/svg"><symbol id="icon-arrow-down" viewBox="0 0 444.819 444.819">
    <path d="M434.252 114.203l-21.409-21.416c-7.419-7.04-16.084-10.561-25.975-10.561-10.095 0-18.657 3.521-25.7 10.561L222.41 231.549 83.653 92.791c-7.042-7.04-15.606-10.561-25.697-10.561-9.896 0-18.559 3.521-25.979 10.561l-21.128 21.416C3.615 121.436 0 130.099 0 140.188c0 10.277 3.619 18.842 10.848 25.693l185.864 185.865c6.855 7.23 15.416 10.848 25.697 10.848 10.088 0 18.75-3.617 25.977-10.848l185.865-185.865c7.043-7.044 10.567-15.608 10.567-25.693.001-9.901-3.523-18.559-10.566-25.985z"/>
</symbol><symbol id="icon-arrow-right-2" viewBox="0 0 492.004 492.004">
    <path d="M382.678 226.804L163.73 7.86C158.666 2.792 151.906 0 144.698 0s-13.968 2.792-19.032 7.86l-16.124 16.12c-10.492 10.504-10.492 27.576 0 38.064L293.398 245.9l-184.06 184.06c-5.064 5.068-7.86 11.824-7.86 19.028 0 7.212 2.796 13.968 7.86 19.04l16.124 16.116c5.068 5.068 11.824 7.86 19.032 7.86s13.968-2.792 19.032-7.86L382.678 265c5.076-5.084 7.864-11.872 7.848-19.088.016-7.244-2.772-14.028-7.848-19.108z"/>
</symbol><symbol id="icon-arrow-right" viewBox="0 0 46.02 46.02">
    <path d="M14.757 46.02a5.688 5.688 0 0 1-3.929-1.569 5.705 5.705 0 0 1-.204-8.063L23.382 22.97 10.637 9.645a5.703 5.703 0 0 1 8.242-7.884l16.505 17.253a5.707 5.707 0 0 1 .013 7.872L18.893 44.247a5.699 5.699 0 0 1-4.136 1.773z"/>
</symbol><symbol id="icon-check" viewBox="0 0 512 512">
    <path d="M504.502 75.496c-9.997-9.998-26.205-9.998-36.204 0L161.594 382.203 43.702 264.311c-9.997-9.998-26.205-9.997-36.204 0-9.998 9.997-9.998 26.205 0 36.203l135.994 135.992c9.994 9.997 26.214 9.99 36.204 0L504.502 111.7c9.998-9.997 9.997-26.206 0-36.204z"/>
</symbol><symbol id="icon-linkedin" viewBox="0 0 291.319 291.319">
    <path d="M145.659 0c80.45 0 145.66 65.219 145.66 145.66s-65.21 145.659-145.66 145.659S0 226.1 0 145.66 65.21 0 145.659 0z"/>
    <path d="M82.079 200.136h27.275v-90.91H82.079v90.91zm106.259-94.059c-13.237 0-25.081 4.834-33.483 15.504v-12.654H127.48v91.21h27.375v-49.324c0-10.424 9.55-20.593 21.512-20.593s14.912 10.169 14.912 20.338v49.57h27.275v-51.6c-.001-35.842-16.97-42.451-30.216-42.451zm-92.749-5.936c7.538 0 13.656-6.118 13.656-13.656S103.127 72.83 95.589 72.83s-13.656 6.118-13.656 13.656 6.118 13.655 13.656 13.655z"/>
</symbol></svg>